<?xml version="1.0" standalone="no"?><!DOCTYPE svg PUBLIC "-//W3C//DTD SVG 1.1//EN"
        "http://www.w3.org/Graphics/SVG/1.1/DTD/svg11.dtd">
<svg t="1656766620431" class="icon" viewBox="0 0 1024 1024" version="1.1" xmlns="http://www.w3.org/2000/svg" p-id="1444"
     width="200" height="200">
    <defs>
        <style type="text/css"></style>
    </defs>
    <path d="M909.143 81.353c-25.55 0-46.34 20.79-46.34 46.34s20.79 46.34 46.34 46.34 46.34-20.79 46.34-46.34-20.79-46.34-46.34-46.34z m0 70c-13.05 0-23.66-10.62-23.66-23.66 0-13.05 10.61-23.66 23.66-23.66s23.66 10.61 23.66 23.66c0 13.04-10.61 23.66-23.66 23.66z"
          fill="#3D464B" p-id="1445"></path>
    <path d="M909.143 127.693m-23.66 0a23.66 23.66 0 1 0 47.32 0 23.66 23.66 0 1 0-47.32 0Z" fill="#F7A09F"
          p-id="1446"></path>
    <path d="M110.873 212.224c-22.93 0-41.59 18.66-41.59 41.59 0 22.94 18.66 41.6 41.59 41.6 22.94 0 41.6-18.66 41.6-41.6 0-22.931-18.66-41.59-41.6-41.59z m0 60.509c-10.43 0-18.92-8.49-18.92-18.92 0-10.43 8.49-18.92 18.92-18.92 10.44 0 18.92 8.49 18.92 18.92 0 10.43-8.48 18.92-18.92 18.92z"
          fill="#3D464B" p-id="1447"></path>
    <path d="M110.873 253.813m-18.92 0a18.92 18.92 0 1 0 37.84 0 18.92 18.92 0 1 0-37.84 0Z" fill="#B8D6C8"
          p-id="1448"></path>
    <path d="M942.413 401.253c0-0.05 0-0.1-0.01-0.15 0-0.04 0-0.09-0.01-0.14-0.01-0.07-0.02-0.14-0.02-0.2s-0.01-0.12-0.02-0.18c-0.01-0.12-0.03-0.24-0.04-0.36-0.01-0.03-0.01-0.07-0.02-0.1-0.01-0.09-0.03-0.17-0.05-0.26-0.01-0.08-0.03-0.16-0.05-0.25-0.01-0.04-0.03-0.07-0.03-0.11-0.1-0.42-0.22-0.85-0.36-1.26-0.04-0.11-0.08-0.22-0.11-0.33-0.06-0.16-0.13-0.31-0.2-0.47-0.12-0.27-0.25-0.54-0.38-0.8-0.09-0.17-0.18-0.33-0.28-0.49a0.913 0.913 0 0 1-0.08-0.13l-0.09-0.15c-0.01-0.02-0.02-0.03-0.04-0.05-0.04-0.07-0.09-0.14-0.14-0.21a0.94 0.94 0 0 0-0.12-0.18 2.78 2.78 0 0 0-0.08-0.11v-0.01l-0.02-0.01-0.06-0.09c-0.05-0.08-0.11-0.16-0.18-0.23-0.11-0.14-0.22-0.29-0.35-0.42a0.156 0.156 0 0 0-0.06-0.08c-0.03-0.04-0.07-0.09-0.11-0.13-0.05-0.06-0.1-0.11-0.15-0.16l-0.26-0.26a0.927 0.927 0 0 0-0.14-0.14c-0.01-0.02-0.03-0.03-0.04-0.04-0.06-0.05-0.11-0.11-0.17-0.16-0.01 0-0.02-0.01-0.03-0.02-0.02-0.03-0.05-0.05-0.08-0.07-0.03-0.03-0.07-0.06-0.1-0.09-0.09-0.08-0.17-0.15-0.26-0.22l-0.18-0.15c-0.01-0.01-0.03-0.02-0.04-0.03l-0.1-0.07c-0.13-0.11-0.26-0.2-0.4-0.29-0.23-0.17-0.47-0.32-0.71-0.47l-142.25-93.54V87.393c0-6.26-5.08-11.33-11.34-11.33h-531.63c-6.27 0-11.34 5.07-11.34 11.33v195.11l-146.13 110.16c-0.14 0.1-0.28 0.2-0.41 0.31-0.08 0.05-0.15 0.11-0.23 0.18-0.14 0.1-0.28 0.22-0.42 0.35-0.05 0.04-0.1 0.08-0.14 0.13-0.12 0.1-0.24 0.22-0.36 0.34-0.06 0.06-0.13 0.12-0.19 0.19-0.03 0.03-0.06 0.07-0.09 0.1-0.02 0.01-0.03 0.03-0.04 0.04-0.03 0.04-0.07 0.08-0.11 0.12l-0.04 0.05c-0.02 0.02-0.04 0.05-0.06 0.07-0.13 0.14-0.25 0.29-0.36 0.44-0.07 0.07-0.13 0.15-0.18 0.23a0.55 0.55 0 0 1-0.07 0.09c-0.03 0.05-0.06 0.09-0.09 0.13-0.09 0.13-0.18 0.26-0.26 0.39-0.07 0.11-0.15 0.22-0.21 0.34-0.1 0.16-0.19 0.32-0.28 0.48-0.09 0.18-0.18 0.37-0.27 0.56-0.01 0.03-0.03 0.06-0.04 0.09-0.02 0.05-0.05 0.1-0.07 0.15-0.04 0.09-0.08 0.19-0.12 0.29-0.04 0.09-0.08 0.19-0.11 0.29-0.03 0.07-0.06 0.15-0.08 0.22-0.01 0.021-0.02 0.03-0.02 0.04-0.06 0.15-0.1 0.31-0.15 0.46-0.03 0.1-0.06 0.19-0.07 0.29-0.03 0.09-0.06 0.18-0.08 0.27-0.03 0.12-0.06 0.24-0.08 0.35-0.02 0.07-0.03 0.14-0.04 0.2l-0.06 0.33c-0.02 0.13-0.04 0.27-0.05 0.4-0.03 0.23-0.05 0.45-0.06 0.67-0.02 0.24-0.03 0.48-0.03 0.72v534.78c0 0.24 0.01 0.48 0.03 0.72 0.01 0.22 0.03 0.45 0.06 0.67 0.01 0.13 0.03 0.27 0.05 0.4 0.03 0.18 0.06 0.35 0.1 0.53 0.02 0.11 0.05 0.23 0.08 0.35 0.09 0.36 0.19 0.72 0.32 1.06 0.09 0.27 0.19 0.54 0.31 0.8 0.12 0.27 0.25 0.54 0.38 0.8 0.15 0.28 0.31 0.56 0.49 0.82 0.13 0.21 0.27 0.42 0.43 0.62 0.02 0.04 0.06 0.09 0.1 0.13 0.14 0.2 0.31 0.4 0.479 0.59 0.16 0.19 0.33 0.37 0.5 0.54 0.07 0.07 0.14 0.14 0.22 0.2 0.16 0.17 0.33 0.31 0.5 0.45l0.03 0.03c0.18 0.15 0.37 0.3 0.56 0.43 0.15 0.12 0.32 0.23 0.48 0.33 0.17 0.12 0.35 0.23 0.54 0.34 0.23 0.13 0.47 0.26 0.71 0.38a10.997 10.997 0 0 0 1.21 0.5c0.19 0.07 0.38 0.14 0.58 0.19 0.03 0.01 0.05 0.02 0.08 0.02 0.19 0.06 0.38 0.11 0.57 0.15 0.29 0.07 0.59 0.13 0.88 0.17 0.24 0.03 0.48 0.06 0.72 0.08h0.06c0.29 0.03 0.58 0.04 0.87 0.04h830.48c0.33 0 0.65-0.01 0.98-0.05 0.24-0.01 0.47-0.04 0.7-0.08l0.39-0.06c0.99-0.18 1.97-0.5 2.91-0.96 1.16-0.57 2.2-1.32 3.08-2.22 0.16-0.15 0.31-0.31 0.45-0.48 0.38-0.42 0.72-0.87 1.01-1.34 0.06-0.08 0.11-0.17 0.17-0.26 0.11-0.18 0.22-0.37 0.32-0.56 0.13-0.26 0.26-0.53 0.38-0.8 0.07-0.15 0.14-0.31 0.2-0.47 0.03-0.11 0.07-0.22 0.11-0.33 0.23-0.64 0.4-1.3 0.51-1.98 0.01-0.12 0.03-0.24 0.04-0.36 0.03-0.22 0.05-0.45 0.06-0.67 0.02-0.24 0.03-0.48 0.03-0.72v-534.78c0.001-0.24-0.009-0.48-0.029-0.72z m-147.819-75.47l98.63 64.85h-98.63v-64.85z m0 87.53h103.55l-103.55 80.8v-80.8zM262.953 98.733h508.96v413.08l-183.48 143.17-65.59-51.18c-4.1-3.2-9.85-3.2-13.95 0l-65.59 51.18-180.35-140.72V98.733z m-22.67 212.17v79.73h-105.78l105.78-79.73z m0 102.41v83.26l-106.7-83.26h106.7z m-128.32 11.89l128.32 100.13 22.67 17.69 161.91 126.34-58.03 45.29h-0.01l-29.05 22.67-225.81 176.2v-488.32z m21.62 500.21l241.05-188.09 29.05-22.67 39.62-30.91 6.97-5.44 0.01-0.01 11.45-8.93 54.13-42.24 54.13 42.24 11.37 8.86c0.03 0.03 0.06 0.06 0.09 0.08l6.98 5.44 39.61 30.91 29.05 22.67 241.05 188.09h-764.56z m786.18-11.899l-180.31-140.69-45.5-35.5-29.05-22.67-58.04-45.29 165.05-128.79 22.68-17.7 19.12-14.92 106.05-82.74v488.3z"
          fill="#3D464B" p-id="1449"></path>
    <path d="M919.763 425.213v488.301l-180.31-140.691-45.5-35.5-29.05-22.67-58.04-45.29 165.05-128.79 22.681-17.7 19.119-14.92zM424.863 669.363l-58.03 45.29h-0.01l-29.05 22.67-225.81 176.2v-488.32l128.32 100.13 22.67 17.69zM898.143 925.413h-764.56l241.05-188.09 29.05-22.67 39.62-30.91 6.97-5.44 0.01-0.01 11.45-8.93 54.13-42.24 54.13 42.24 11.37 8.86c0.03 0.03 0.06 0.06 0.09 0.08l6.98 5.44 39.61 30.91 29.05 22.67 241.05 188.09z"
          fill="#BED2BB" p-id="1450" data-spm-anchor-id="a313x.7781069.0.i9" class="selected"></path>
    <path d="M898.143 413.313l-103.549 80.8v-80.8zM893.223 390.633h-98.629v-64.85zM240.283 413.313v83.26l-106.7-83.26zM240.283 310.903v79.73h-105.78z"
          fill="#F7A09F" p-id="1451"></path>
    <path d="M262.953 98.733v415.53l180.35 140.72 65.59-51.18c4.1-3.2 9.85-3.2 13.95 0l65.59 51.18 183.48-143.17V98.733h-508.96z m109.67 112.42c11.38-21.39 31.75-37.19 55.96-42.19a81.707 81.707 0 0 1 16.44-1.67c30.14 0 56.54 16.51 70.84 41.05 9.92-17.02 25.65-30.17 44.41-36.64 8.3-2.86 17.19-4.41 26.43-4.41 2.99 0 5.95 0.16 8.86 0.48 26.52 2.89 49.31 18.6 62.15 40.87a82.943 82.943 0 0 1 10.83 34.26c0.24 2.49 0.35 5.02 0.35 7.57 0 25.19-11.08 48.63-30.44 64.53-0.44 0.44-0.92 0.85-1.44 1.22l-104.35 74.41-10.22 7.29c-1.97 1.4-4.27 2.11-6.58 2.11-2.31 0-4.61-0.71-6.58-2.11l-10.22-7.29-104.4-74.46c-0.51-0.36-0.98-0.76-1.41-1.19-19.35-15.9-30.41-39.34-30.41-64.51 0.001-14.209 3.541-27.6 9.78-39.32z m254.91 312.26h-223.35c-6.26 0-11.34-5.08-11.34-11.34s5.08-11.34 11.34-11.34h223.35c6.26 0 11.34 5.08 11.34 11.34s-5.08 11.34-11.34 11.34z m42.47-59.77h-308.28c-6.27 0-11.34-5.08-11.34-11.34s5.07-11.34 11.34-11.34h308.28c6.26 0 11.34 5.08 11.34 11.34 0.001 6.26-5.08 11.34-11.34 11.34z"
          fill="#FFFFFF" p-id="1452"></path>
    <path d="M681.344 452.303c0 6.26-5.08 11.34-11.34 11.34h-308.28c-6.27 0-11.34-5.08-11.34-11.34s5.07-11.34 11.34-11.34h308.28c6.259 0 11.34 5.08 11.34 11.34zM638.873 512.073c0 6.26-5.08 11.34-11.34 11.34h-223.35c-6.26 0-11.34-5.08-11.34-11.34s5.08-11.34 11.34-11.34h223.35c6.26 0 11.34 5.08 11.34 11.34zM668.543 242.903a82.943 82.943 0 0 0-10.83-34.26c-12.84-22.27-35.63-37.98-62.15-40.87-2.91-0.32-5.87-0.48-8.86-0.48-9.24 0-18.13 1.55-26.43 4.41-18.76 6.47-34.49 19.62-44.41 36.64-14.3-24.54-40.7-41.05-70.84-41.05-5.63 0-11.13 0.58-16.44 1.67-24.21 5-44.58 20.8-55.96 42.19-6.24 11.72-9.78 25.11-9.78 39.32 0 25.17 11.06 48.61 30.41 64.51 0.43 0.43 0.9 0.83 1.41 1.19l104.4 74.46 10.22 7.29c1.97 1.4 4.27 2.11 6.58 2.11 2.31 0 4.61-0.71 6.58-2.11l10.22-7.29 104.35-74.41c0.52-0.37 1-0.78 1.44-1.22 19.36-15.9 30.44-39.34 30.44-64.53 0-2.55-0.11-5.08-0.35-7.57z m-45.27 55.21c-0.15 0.12-0.29 0.24-0.44 0.37l-106.97 76.28-107.07-76.36c-0.13-0.12-0.26-0.22-0.39-0.33-14.55-11.58-22.89-28.93-22.89-47.6 0-33.36 26.7-60.5 59.51-60.5s59.5 27.14 59.5 60.5c0 6.26 5.08 11.33 11.34 11.33s11.34-5.07 11.34-11.33c0-33.36 26.69-60.5 59.5-60.5 0.46 0 0.92 0.01 1.37 0.02 23.05 0.53 42.91 14.46 52.32 34.4 3.73 7.9 5.82 16.75 5.82 26.08 0 18.69-8.36 36.06-22.94 47.64z"
          fill="#3D464B" p-id="1453"></path>
    <path d="M646.213 250.474c0 18.69-8.36 36.06-22.94 47.64-0.15 0.12-0.29 0.24-0.44 0.37l-106.97 76.28-107.07-76.36c-0.13-0.12-0.26-0.22-0.39-0.33-14.55-11.58-22.89-28.93-22.89-47.6 0-33.36 26.7-60.5 59.51-60.5s59.5 27.14 59.5 60.5c0 6.26 5.08 11.33 11.34 11.33s11.34-5.07 11.34-11.33c0-33.36 26.69-60.5 59.5-60.5 0.46 0 0.92 0.01 1.37 0.02 23.05 0.53 42.91 14.46 52.32 34.4 3.73 7.899 5.82 16.749 5.82 26.08z"
          fill="#F7A09F" p-id="1454"></path>
</svg>
